<?xml version="1.0" standalone="no"?><svg xmlns:xlink="http://www.w3.org/1999/xlink" xmlns="http://www.w3.org/2000/svg" viewBox="0 0 11000 66000" preserveAspectRatio="xMaxYMax slice"><g transform="scale(127.90697674418605)"><rect x="0" y="0" width="86" height="516" fill="transparent"/><circle cx="21.5" cy="21.5" r="4.3" fill="transparent"/><circle cx="64.5" cy="21.5" r="4.3" fill="#4a53d0"/><circle cx="21.5" cy="64.5" r="4.3" fill="#101013"/><circle cx="64.5" cy="64.5" r="4.3" fill="transparent"/><circle cx="21.5" cy="107.5" r="4.3" fill="transparent"/><circle cx="64.5" cy="107.5" r="4.3" fill="#262a5c"/><circle cx="21.5" cy="150.5" r="4.3" fill="transparent"/><circle cx="64.5" cy="150.5" r="4.3" fill="transparent"/><circle cx="21.5" cy="193.5" r="4.3" fill="transparent"/><circle cx="64.5" cy="193.5" r="4.3" fill="transparent"/><circle cx="21.5" cy="236.5" r="4.3" fill="#505ae3"/><circle cx="64.5" cy="236.5" r="4.3" fill="transparent"/><circle cx="21.5" cy="279.5" r="4.3" fill="transparent"/><circle cx="64.5" cy="279.5" r="4.3" fill="transparent"/><circle cx="21.5" cy="322.5" r="4.3" fill="transparent"/><circle cx="64.5" cy="322.5" r="4.3" fill="transparent"/><circle cx="21.5" cy="365.5" r="4.3" fill="transparent"/><circle cx="64.5" cy="365.5" r="4.3" fill="#4952cd"/><circle cx="21.5" cy="408.5" r="4.3" fill="transparent"/><circle cx="64.5" cy="408.5" r="4.3" fill="#3e46aa"/><circle cx="21.5" cy="451.5" r="4.3" fill="#2f3478"/><circle cx="64.5" cy="451.5" r="4.3" fill="#4e58de"/><circle cx="21.5" cy="494.5" r="4.3" fill="transparent"/><circle cx="64.5" cy="494.5" r="4.3" fill="transparent"/></g></svg>