<?xml version="1.0" standalone="no"?><svg xmlns:xlink="http://www.w3.org/1999/xlink" xmlns="http://www.w3.org/2000/svg" viewBox="0 0 1000 700.0017635703346" preserveAspectRatio="xMaxYMax slice"><g transform="scale(1.356592565058788)"><rect x="0" y="0" width="737.1428571428571" height="589.7142857142857" fill="#ffffff"/><circle cx="36.86" cy="36.86" r="7.37" fill="#ffffff"/><circle cx="110.57000000000001" cy="36.86" r="7.37" fill="#ffffff"/><circle cx="184.28" cy="36.86" r="7.37" fill="#ffffff"/><circle cx="258" cy="36.86" r="7.37" fill="#646ff9"/><circle cx="331.71" cy="36.86" r="7.37" fill="#5b66f8"/><circle cx="405.43" cy="36.86" r="7.37" fill="#ffffff"/><circle cx="479.14" cy="36.86" r="7.37" fill="#9ea4fb"/><circle cx="552.86" cy="36.86" r="7.37" fill="#7a83fa"/><circle cx="626.57" cy="36.86" r="7.37" fill="#7e86fa"/><circle cx="700.28" cy="36.86" r="7.37" fill="#ffffff"/><circle cx="36.86" cy="110.57000000000001" r="7.37" fill="#ffffff"/><circle cx="110.57000000000001" cy="110.57000000000001" r="7.37" fill="#ffffff"/><circle cx="184.28" cy="110.57000000000001" r="7.37" fill="#b9bdfc"/><circle cx="258" cy="110.57000000000001" r="7.37" fill="#5c67f8"/><circle cx="331.71" cy="110.57000000000001" r="7.37" fill="#ffffff"/><circle cx="405.43" cy="110.57000000000001" r="7.37" fill="#ffffff"/><circle cx="479.14" cy="110.57000000000001" r="7.37" fill="#ffffff"/><circle cx="552.86" cy="110.57000000000001" r="7.37" fill="#e5e7fe"/><circle cx="626.57" cy="110.57000000000001" r="7.37" fill="#c3c7fd"/><circle cx="700.28" cy="110.57000000000001" r="7.37" fill="#ffffff"/><circle cx="36.86" cy="184.28" r="7.37" fill="#f3f4ff"/><circle cx="110.57000000000001" cy="184.28" r="7.37" fill="#747df9"/><circle cx="184.28" cy="184.28" r="7.37" fill="#ffffff"/><circle cx="258" cy="184.28" r="7.37" fill="#ffffff"/><circle cx="331.71" cy="184.28" r="7.37" fill="#b7bcfc"/><circle cx="405.43" cy="184.28" r="7.37" fill="#aab0fb"/><circle cx="479.14" cy="184.28" r="7.37" fill="#7881f9"/><circle cx="552.86" cy="184.28" r="7.37" fill="#dfe1fe"/><circle cx="626.57" cy="184.28" r="7.37" fill="#cacdfd"/><circle cx="700.28" cy="184.28" r="7.37" fill="#ffffff"/><circle cx="36.86" cy="258" r="7.37" fill="#ffffff"/><circle cx="110.57000000000001" cy="258" r="7.37" fill="#5964f8"/><circle cx="184.28" cy="258" r="7.37" fill="#ffffff"/><circle cx="258" cy="258" r="7.37" fill="#828afa"/><circle cx="331.71" cy="258" r="7.37" fill="#ffffff"/><circle cx="405.43" cy="258" r="7.37" fill="#bec2fc"/><circle cx="479.14" cy="258" r="7.37" fill="#5964f8"/><circle cx="552.86" cy="258" r="7.37" fill="#ffffff"/><circle cx="626.57" cy="258" r="7.37" fill="#ffffff"/><circle cx="700.28" cy="258" r="7.37" fill="#6872f9"/><circle cx="36.86" cy="331.71" r="7.37" fill="#b9bdfc"/><circle cx="110.57000000000001" cy="331.71" r="7.37" fill="#ffffff"/><circle cx="184.28" cy="331.71" r="7.37" fill="#b8bdfc"/><circle cx="258" cy="331.71" r="7.37" fill="#6a74f9"/><circle cx="331.71" cy="331.71" r="7.37" fill="#ffffff"/><circle cx="405.43" cy="331.71" r="7.37" fill="#606af8"/><circle cx="479.14" cy="331.71" r="7.37" fill="#6872f9"/><circle cx="552.86" cy="331.71" r="7.37" fill="#aaaffb"/><circle cx="626.57" cy="331.71" r="7.37" fill="#d8dbfd"/><circle cx="700.28" cy="331.71" r="7.37" fill="#ffffff"/><circle cx="36.86" cy="405.43" r="7.37" fill="#ffffff"/><circle cx="110.57000000000001" cy="405.43" r="7.37" fill="#878ffa"/><circle cx="184.28" cy="405.43" r="7.37" fill="#ffffff"/><circle cx="258" cy="405.43" r="7.37" fill="#ffffff"/><circle cx="331.71" cy="405.43" r="7.37" fill="#ffffff"/><circle cx="405.43" cy="405.43" r="7.37" fill="#ffffff"/><circle cx="479.14" cy="405.43" r="7.37" fill="#ffffff"/><circle cx="552.86" cy="405.43" r="7.37" fill="#838bfa"/><circle cx="626.57" cy="405.43" r="7.37" fill="#ffffff"/><circle cx="700.28" cy="405.43" r="7.37" fill="#ffffff"/><circle cx="36.86" cy="479.14" r="7.37" fill="#9ea4fb"/><circle cx="110.57000000000001" cy="479.14" r="7.37" fill="#ffffff"/><circle cx="184.28" cy="479.14" r="7.37" fill="#abb1fc"/><circle cx="258" cy="479.14" r="7.37" fill="#ffffff"/><circle cx="331.71" cy="479.14" r="7.37" fill="#c9ccfd"/><circle cx="405.43" cy="479.14" r="7.37" fill="#8b93fa"/><circle cx="479.14" cy="479.14" r="7.37" fill="#ffffff"/><circle cx="552.86" cy="479.14" r="7.37" fill="#fcfdff"/><circle cx="626.57" cy="479.14" r="7.37" fill="#949bfb"/><circle cx="700.28" cy="479.14" r="7.37" fill="#ffffff"/><circle cx="36.86" cy="552.86" r="7.37" fill="#ffffff"/><circle cx="110.57000000000001" cy="552.86" r="7.37" fill="#aeb4fc"/><circle cx="184.28" cy="552.86" r="7.37" fill="#fcfcff"/><circle cx="258" cy="552.86" r="7.37" fill="#f9faff"/><circle cx="331.71" cy="552.86" r="7.37" fill="#ffffff"/><circle cx="405.43" cy="552.86" r="7.37" fill="#a4aafb"/><circle cx="479.14" cy="552.86" r="7.37" fill="#c5c8fd"/><circle cx="552.86" cy="552.86" r="7.37" fill="#ffffff"/><circle cx="626.57" cy="552.86" r="7.37" fill="#ffffff"/><circle cx="700.28" cy="552.86" r="7.37" fill="#7f87fa"/></g></svg>